<svg xmlns="http://www.w3.org/2000/svg" width="1091" height="1091" fill="none" viewBox="0 0 1091 1091"><path fill="#045B81" d="M940.687 584.803L985.226 840.105L737.37 750.223L940.687 584.803L985.226 840.105L737.37 750.223L940.687 584.803Z"/><path fill="#045B81" d="M131.446 560.799C131.446 560.799 131.75 564.722 132.359 572.108C132.799 579.46 134.185 590.243 136.316 603.695C136.925 607.091 137.601 610.62 138.311 614.345C138.649 616.224 138.988 618.071 139.36 620.016C139.833 621.962 140.307 623.907 140.78 625.918C141.727 629.908 142.741 634.095 143.79 638.382C145.041 642.668 146.326 647.086 147.679 651.636C153.293 669.738 160.834 689.752 171.217 710.491C181.599 731.197 194.821 752.629 211.088 773.401C227.389 794.174 246.733 814.254 268.715 832.455C279.638 841.62 291.475 850.029 303.615 858.173C315.994 865.954 328.675 873.537 342.067 879.967C368.682 893.155 397.055 903.443 426.207 909.84C455.325 916.302 484.95 919.534 514 918.973C517.618 918.841 521.203 918.709 524.822 918.61L530.199 918.412H530.571C528.474 918.445 530.199 918.412 529.793 918.412L532.025 918.215L534.933 917.951L546.635 916.962L552.451 916.467L555.326 916.204C556.273 916.138 557.051 915.939 557.863 915.807C564.491 914.753 571.051 913.73 577.578 912.675C584.342 911.192 591.004 909.708 597.667 908.224C624.045 901.63 648.529 892.398 670.546 881.582C673.251 880.198 675.956 878.813 678.662 877.462C681.333 876.142 684.073 874.856 686.575 873.274C691.682 870.273 696.687 867.305 701.658 864.405C706.494 861.338 711.06 858.107 715.659 855.073C720.292 852.139 724.519 848.743 728.679 845.511C730.776 843.896 732.839 842.313 734.902 840.763C735.95 839.972 736.931 839.214 737.945 838.456L740.82 835.95C744.608 832.652 748.294 829.421 751.913 826.289C755.531 823.189 758.676 819.76 761.922 816.661C763.546 815.078 765.135 813.528 766.691 811.979C768.28 810.495 769.768 808.945 771.155 807.33C782.654 794.933 791.852 783.525 798.886 773.798C802.302 768.851 805.413 764.5 808.051 760.674C810.486 756.718 812.515 753.322 814.206 750.618C817.52 745.178 819.312 742.276 819.312 742.276L820.666 740.067C836.729 713.887 871.393 705.446 898.076 721.141C924.792 736.869 933.449 770.83 917.419 797.043C916.337 798.724 915.188 800.406 914.038 801.955C914.038 801.955 911.231 805.516 906.057 812.242C903.453 815.572 900.342 819.727 896.453 824.475C892.428 829.092 887.761 834.4 882.553 840.302C871.967 851.974 858.406 865.459 841.802 879.703C839.806 881.582 837.642 883.33 835.377 885.044C833.178 886.792 830.912 888.573 828.646 890.354C824.013 893.881 819.515 897.739 814.443 901.201C809.438 904.696 804.263 908.29 798.953 911.95C797.635 912.873 796.316 913.763 794.997 914.654C793.611 915.511 792.224 916.368 790.804 917.225C788.031 918.907 785.156 920.654 782.315 922.369C776.566 925.864 770.783 929.458 764.526 932.591C758.338 935.756 752.116 939.185 745.656 942.35C739.096 945.285 732.399 948.284 725.635 951.318C722.288 952.901 718.703 954.154 715.185 955.506C711.668 956.825 708.152 958.144 704.533 959.528C675.855 969.882 644.607 977.894 611.904 982.378C603.72 983.268 595.401 984.159 587.115 985.081C578.424 985.477 569.699 985.873 560.906 986.302C559.824 986.335 558.64 986.4 557.66 986.4L554.751 986.335L548.901 986.203C545.012 986.137 541.123 986.038 537.199 985.939L530.131 985.807L523.773 985.345C519.546 985.048 515.285 984.719 510.99 984.389C476.935 981.323 442.88 973.805 410.414 962.792C377.881 951.846 347.072 936.679 319.07 918.808C304.969 910.005 291.847 900.08 279.233 890.056C266.855 879.637 254.984 869.086 244.23 857.809C222.587 835.488 204.291 811.682 189.546 787.777C174.7 763.905 163.438 739.936 155.018 717.251C146.664 694.499 141.22 673.068 137.567 653.977C136.722 649.229 135.91 644.581 135.132 640.129C134.557 635.612 134.016 631.292 133.509 627.138C133.238 625.061 132.968 623.016 132.731 621.038C132.562 619.027 132.461 617.049 132.292 615.169C132.021 611.345 131.75 607.685 131.48 604.223C130.871 590.374 130.702 579.493 131.074 572.141C131.311 564.755 131.446 560.799 131.446 560.799Z"/><path fill="#045B81" d="M143.994 481L105 258L322 336.51L143.994 481L105 258L322 336.51L143.994 481Z"/><path fill="#045B81" d="M947.433 536.831C947.433 536.831 947.128 532.908 946.52 525.522C946.08 518.17 944.694 507.387 942.563 493.935C941.954 490.539 941.277 487.01 940.567 483.285C940.23 481.406 939.891 479.559 939.52 477.614C939.046 475.668 938.572 473.723 938.098 471.712C937.152 467.723 936.138 463.535 935.089 459.248C933.838 454.962 932.553 450.544 931.2 445.994C925.586 427.892 918.045 407.878 907.662 387.139C897.28 366.432 884.057 345.001 867.791 324.228C851.49 303.456 832.145 283.376 810.163 265.175C799.241 256.01 787.404 247.601 775.264 239.457C762.886 231.676 750.204 224.093 736.812 217.663C710.196 204.474 681.823 194.187 652.671 187.79C623.553 181.328 593.929 178.097 564.879 178.657C561.26 178.789 557.675 178.921 554.057 179.02L548.68 179.218H548.308C550.405 179.185 548.68 179.218 549.086 179.218L546.853 179.415L543.945 179.679L532.245 180.668L526.427 181.163L523.553 181.427C522.606 181.493 521.828 181.69 521.017 181.822C514.388 182.878 507.827 183.9 501.301 184.955C494.537 186.438 487.875 187.922 481.213 189.406C454.833 196 430.349 205.232 408.334 216.047C405.628 217.432 402.923 218.817 400.217 220.168C397.546 221.487 394.806 222.774 392.304 224.356C387.197 227.357 382.192 230.324 377.22 233.225C372.385 236.292 367.819 239.523 363.219 242.557C358.587 245.491 354.359 248.887 350.2 252.118C348.103 253.734 346.04 255.317 343.977 256.866C342.929 257.658 341.948 258.416 340.933 259.174L338.059 261.68C334.271 264.978 330.585 268.209 326.966 271.341C323.348 274.441 320.203 277.87 316.956 280.969C315.333 282.552 313.743 284.101 312.188 285.651C310.599 287.135 309.111 288.685 307.724 290.3C296.225 302.697 287.027 314.105 279.993 323.832C276.577 328.779 273.465 333.13 270.828 336.956C268.393 340.912 266.364 344.308 264.673 347.012C261.359 352.452 259.567 355.354 259.567 355.354L258.214 357.563C242.149 383.743 207.486 392.184 180.803 376.489C154.087 360.761 145.429 326.8 161.459 300.587C162.541 298.906 163.691 297.224 164.841 295.674C164.841 295.674 167.648 292.114 172.822 285.388C175.426 282.057 178.537 277.903 182.427 273.155C186.451 268.538 191.117 263.23 196.326 257.328C206.911 245.656 220.473 232.171 237.077 217.927C239.073 216.047 241.236 214.3 243.503 212.586C245.701 210.838 247.967 209.057 250.233 207.276C254.865 203.749 259.364 199.891 264.436 196.429C269.441 192.934 274.616 189.34 279.925 185.68C281.244 184.757 282.563 183.867 283.882 182.976C285.268 182.119 286.655 181.262 288.075 180.405C290.848 178.723 293.723 176.975 296.563 175.261C302.313 171.766 308.095 168.172 314.352 165.04C320.54 161.874 326.763 158.445 333.223 155.28C339.784 152.345 346.479 149.345 353.243 146.312C356.591 144.729 360.176 143.476 363.693 142.124C367.211 140.805 370.727 139.486 374.346 138.102C403.024 127.748 434.272 119.736 466.975 115.252C475.159 114.362 483.478 113.472 491.764 112.548C500.455 112.153 509.18 111.757 517.973 111.328C519.055 111.295 520.239 111.229 521.22 111.229L524.128 111.295L529.978 111.427C533.868 111.493 537.757 111.592 541.679 111.691L548.748 111.823L555.105 112.285C559.333 112.581 563.594 112.911 567.889 113.241C601.944 116.307 635.999 123.825 668.465 134.837C700.998 145.784 731.807 160.951 759.808 178.822C773.911 187.625 787.032 197.55 799.647 207.574C812.024 217.993 823.894 228.544 834.648 239.821C856.292 262.142 874.588 285.948 889.333 309.853C904.179 333.725 915.441 357.694 923.861 380.379C932.214 403.131 937.659 424.562 941.312 443.653C942.157 448.401 942.968 453.049 943.746 457.501C944.322 462.018 944.862 466.338 945.369 470.492C945.64 472.569 945.911 474.614 946.147 476.592C946.317 478.603 946.418 480.581 946.588 482.461C946.857 486.285 947.128 489.945 947.399 493.407C948.008 507.256 948.177 518.137 947.805 525.489C947.568 532.875 947.433 536.831 947.433 536.831Z"/><path fill="#105C7F" d="M559.458 805.37C574.084 805.37 586.268 800.554 596.011 790.922C605.807 781.29 610.719 766.093 610.719 745.331C611.598 726.068 612.036 712.101 612.036 703.379C612.036 691.901 612.805 685.694 614.342 684.757C615.934 683.767 633.387 683.259 666.701 683.259C676.718 683.259 684.813 678.523 690.96 669.025C697.162 659.474 700.291 647.407 700.291 632.853C700.291 611.02 692.661 596.893 677.459 590.472C671.75 588.198 664.863 587.048 656.822 587.048H651.663C630.944 587.048 619.611 586.084 617.635 584.157C616.455 583.302 615.879 581.777 615.879 579.556C615.879 569.791 616.702 564.412 618.403 563.396C620.159 562.406 622.3 561.898 624.879 561.898C642.717 561.898 658.688 561.469 672.738 560.614C683.633 559.837 693.704 556.627 702.925 550.981C716.975 542.072 724 527.383 724 506.889C724 495.411 721.832 486.18 717.524 479.17C713.188 472.187 707.919 467.023 701.717 463.653C695.57 460.308 689.478 458.623 683.495 458.623L633.112 459.05C608.743 459.345 581.329 459.478 550.896 459.478C539.699 459.478 530.506 462.903 523.344 469.752C516.154 476.602 511.845 485.057 510.391 495.117C510.089 497.123 509.733 498.755 509.293 500.039C508.854 501.27 508.635 503.25 508.635 506.033V514.916C507.756 534.474 507.318 560.774 507.318 593.79C507.098 599.729 506.988 606.043 506.988 612.732H506.11C506.11 676.249 505.946 714.59 505.671 727.78C505.671 743.993 505.808 752.796 506.11 754.214C506.11 771.846 510.747 784.795 520.051 793.063C529.409 801.25 542.553 805.37 559.458 805.37Z"/><path fill="#EC96A7" d="M509.711 669.212C525.435 669.212 538.388 664.263 548.569 654.337C558.805 644.437 564.321 630.525 565.144 612.599L565.583 544.961L565.144 483.317C565.144 462.636 565.583 449.338 566.461 443.399C566.736 439.76 567.888 437.352 569.864 436.121C571.895 434.837 573.514 434.195 574.694 434.195C582.954 434.195 592.037 433.767 601.916 432.911C611.85 432.054 620.577 429.7 628.041 425.847C645.22 416.001 653.837 398.771 653.837 374.156C653.837 359.895 649.94 349.06 642.201 341.621C634.518 334.211 625.901 329.261 616.405 326.746C606.965 324.258 599.337 323 593.574 323H443.74C428.592 323 413.938 326.077 399.833 332.204C378.592 341.408 368 357.354 368 380.043C368 392.109 372.034 402.624 380.075 411.614C388.115 420.549 396.32 426.543 404.662 429.593C408.889 431.252 413.609 432.428 418.823 433.124C424.009 433.847 432.049 434.195 442.972 434.195C445.826 434.195 448.734 434.623 451.754 435.479C454.745 436.335 456.391 438.449 456.693 441.793C458.724 479.839 459.766 531.985 459.766 598.258V616.772C459.766 617.066 460.315 619.956 461.413 625.441C462.565 630.872 464.87 636.945 468.328 643.635C471.758 650.35 476.781 656.316 483.366 661.507C489.953 666.644 498.734 669.212 509.711 669.212Z"/></svg>