<svg xmlns="http://www.w3.org/2000/svg" width="598" height="638" fill="none" viewBox="0 0 598 638"><mask id="mask0_593_2483" style="mask-type:luminance" width="177" height="194" x="0" y="98" maskUnits="userSpaceOnUse"><path fill="#fff" d="M0 98.6742H176.611V291.733H0V98.6742Z"/></mask><g mask="url(#mask0_593_2483)"><path fill="#045B81" d="M32.1132 287.044L1.06177 104.542L173.945 168.785L32.1132 287.044L1.06177 104.542L173.945 168.785L32.1132 287.044Z"/></g><mask id="mask1_593_2483" style="mask-type:luminance" width="561" height="310" x="37" y="0" maskUnits="userSpaceOnUse"><path fill="#fff" d="M37.6818 0H598V309.833H37.6818V0Z"/></mask><g mask="url(#mask1_593_2483)"><path fill="#045B81" d="M596.749 304.177C596.749 304.177 596.513 301.372 596.089 296.093C595.782 290.838 594.815 283.155 593.352 273.516C592.903 271.112 592.431 268.567 591.936 265.928C591.7 264.608 591.44 263.241 591.204 261.851C590.874 260.484 590.544 259.07 590.213 257.632C589.529 254.757 588.845 251.811 588.113 248.724C587.217 245.684 586.344 242.526 585.4 239.274C581.483 226.335 576.221 212.007 568.978 197.183C561.71 182.383 552.508 167.065 541.159 152.218C529.786 137.394 516.289 123.019 500.952 110.01C493.331 103.458 485.073 97.4487 476.602 91.6513C467.966 86.0659 459.118 80.6691 449.774 76.05C431.205 66.6469 411.384 59.2705 391.045 54.6985C370.73 50.103 350.084 47.7935 329.815 48.1705C327.291 48.2648 324.742 48.3355 322.241 48.4298L318.466 48.5476L318.23 48.5712C319.717 48.5476 318.513 48.5712 318.773 48.5712L318.254 48.6183L317.239 48.7126L315.186 48.8775C312.473 49.1368 309.759 49.3724 307.046 49.6081L302.988 49.9616L300.958 50.1266C300.321 50.2208 299.779 50.3387 299.189 50.4329C294.588 51.1871 289.987 51.9412 285.433 52.6718C280.737 53.7559 276.065 54.7928 271.441 55.8533C253.013 60.5667 235.953 67.1889 220.593 74.8953C218.705 75.8851 216.794 76.8749 214.93 77.8411C213.066 78.8309 211.155 79.7265 209.409 80.8577C205.846 82.9787 202.354 85.0997 198.885 87.1736C195.534 89.3653 192.326 91.6984 189.117 93.8665C185.884 95.9404 182.935 98.3678 180.032 100.677C178.546 101.832 177.107 102.963 175.691 104.071C174.959 104.637 174.252 105.179 173.567 105.744L171.562 107.535C168.919 109.868 166.347 112.178 163.846 114.417C161.274 116.608 159.103 119.107 156.838 121.298C155.706 122.429 154.597 123.537 153.511 124.621C152.402 125.705 151.34 126.813 150.397 127.968C142.374 136.829 135.956 145.006 131.048 151.935C128.642 155.47 126.518 158.605 124.631 161.315C122.955 164.143 121.516 166.547 120.36 168.503C118.024 172.415 116.797 174.465 116.797 174.465L115.829 176.044C104.669 194.756 80.4601 200.813 61.8434 189.571C43.1795 178.33 37.1627 154.033 48.3704 135.321C49.0783 134.142 49.8805 132.94 50.7064 131.833C50.7064 131.833 52.6176 129.264 56.2513 124.456C58.0917 122.076 60.2861 119.13 62.9524 115.713C65.7838 112.414 69.0164 108.619 72.65 104.401C80.059 96.0818 89.5207 86.4194 101.106 76.2386C102.498 74.9188 104.008 73.6462 105.566 72.4208C107.123 71.1717 108.68 69.8991 110.285 68.6265C113.494 66.1284 116.655 63.3475 120.195 60.873C123.71 58.3749 127.32 55.8062 131.001 53.2138C131.898 52.5539 132.818 51.9176 133.762 51.2578C134.729 50.645 135.697 50.0323 136.688 49.4196C138.646 48.2177 140.628 46.9686 142.61 45.7431C146.621 43.2686 150.656 40.6763 155.021 38.461C159.339 36.1515 163.681 33.7241 168.188 31.4852C172.789 29.3642 177.413 27.2196 182.156 25.0515C184.492 23.9203 186.946 23.0248 189.447 22.0585C191.901 21.1158 194.355 20.1496 196.856 19.2069C216.888 11.7834 238.69 6.05667 261.507 2.87515C267.241 2.23884 272.998 1.57898 278.779 0.942672C284.866 0.65987 290.954 0.353502 297.089 0.0707004C297.844 0.0471351 298.646 0 299.354 0L301.383 0.0471336L305.441 0.117828C308.179 0.18853 310.916 0.235667 313.629 0.306363L318.513 0.424202L322.996 0.754137C325.946 0.966243 328.919 1.20191 331.892 1.41401C355.676 3.62929 379.436 8.97894 402.088 16.8503C424.81 24.6744 446.258 35.5152 465.795 48.2884C475.635 54.5807 484.813 61.6743 493.614 68.8386C502.227 76.2857 510.532 83.8271 518.035 91.9105C533.16 107.865 545.878 124.857 556.213 141.943C566.524 159.029 574.405 176.138 580.256 192.352C586.108 208.613 589.907 223.932 592.455 237.577C593.045 240.97 593.611 244.293 594.154 247.475C594.531 250.704 594.909 253.814 595.286 256.76C595.475 258.245 595.64 259.706 595.829 261.144C595.924 262.558 596.042 263.972 596.136 265.339C596.325 268.049 596.513 270.665 596.702 273.139C597.103 283.061 597.221 290.814 596.962 296.07C596.82 301.349 596.749 304.177 596.749 304.177Z"/></g><mask id="mask2_593_2483" style="mask-type:luminance" width="180" height="194" x="418" y="346" maskUnits="userSpaceOnUse"><path fill="#fff" d="M418.227 346.031H598V539.09H418.227V346.031Z"/></mask><g mask="url(#mask2_593_2483)"><path fill="#045B81" d="M565.674 350.957L596.749 533.434L423.819 469.191L565.674 350.957L596.749 533.434L423.819 469.191L565.674 350.957Z"/></g><mask id="mask3_593_2483" style="mask-type:luminance" width="558" height="311" x="0" y="327" maskUnits="userSpaceOnUse"><path fill="#fff" d="M0 327.932H557.156V638H0V327.932Z"/></mask><g mask="url(#mask3_593_2483)"><path fill="#045B81" d="M1.06181 333.8C1.06181 333.8 1.27416 336.604 1.69888 341.883C2.00562 347.139 2.97303 354.845 4.45953 364.46C4.88425 366.888 5.35616 369.409 5.85166 372.072C6.08761 373.416 6.32356 374.735 6.58311 376.126C6.91345 377.516 7.24378 378.907 7.57412 380.344C8.23479 383.196 8.94265 386.189 9.6741 389.253C10.5471 392.316 11.4437 395.474 12.3876 398.726C16.3044 411.665 21.5661 425.97 28.8099 440.793C36.0537 455.593 45.2794 470.912 56.6288 485.759C68.0017 500.606 81.4983 514.958 96.8352 527.967C104.457 534.518 112.715 540.528 121.186 546.349C129.821 551.911 138.67 557.331 148.013 561.926C166.583 571.353 186.379 578.706 206.719 583.278C227.034 587.897 247.704 590.207 267.972 589.806C270.497 589.712 272.998 589.617 275.523 589.547L279.274 589.405H279.534C278.071 589.429 279.274 589.405 278.991 589.405L280.548 589.264L282.578 589.075L290.742 588.368L294.8 588.015L296.806 587.826C297.466 587.779 298.009 587.638 298.575 587.544C303.2 586.789 307.777 586.059 312.331 585.305C317.05 584.244 321.699 583.184 326.347 582.123C344.751 577.41 361.834 570.811 377.195 563.081C379.082 562.091 380.97 561.102 382.858 560.135C384.722 559.193 386.633 558.274 388.379 557.142C391.942 554.998 395.434 552.877 398.903 550.803C402.277 548.611 405.462 546.302 408.671 544.134C411.904 542.036 414.853 539.609 417.755 537.299C419.218 536.144 420.657 535.013 422.097 533.906C422.828 533.34 423.512 532.798 424.22 532.256L426.226 530.465C428.869 528.108 431.441 525.799 433.965 523.56C436.49 521.344 438.684 518.893 440.949 516.678C442.082 515.547 443.191 514.439 444.276 513.332C445.385 512.271 446.424 511.164 447.391 510.009C455.413 501.148 461.831 492.994 466.739 486.041C469.122 482.506 471.293 479.396 473.133 476.662C474.832 473.834 476.248 471.406 477.428 469.474C479.74 465.585 480.991 463.512 480.991 463.512L481.935 461.933C493.142 443.221 517.328 437.187 535.944 448.405C554.585 459.647 560.625 483.92 549.441 502.656C548.686 503.858 547.883 505.06 547.081 506.167C547.081 506.167 545.123 508.713 541.513 513.52C539.696 515.901 537.525 518.87 534.812 522.264C532.004 525.563 528.748 529.357 525.114 533.576C517.729 541.918 508.267 551.557 496.682 561.738C495.289 563.081 493.779 564.33 492.198 565.556C490.665 566.805 489.084 568.077 487.503 569.35C484.27 571.872 481.132 574.629 477.593 577.103C474.101 579.602 470.491 582.17 466.786 584.786C465.866 585.446 464.946 586.082 464.026 586.719C463.058 587.331 462.091 587.944 461.1 588.557C459.165 589.759 457.159 591.008 455.177 592.233C451.166 594.731 447.131 597.3 442.766 599.539C438.448 601.801 434.107 604.252 429.6 606.515C425.023 608.612 420.351 610.757 415.632 612.925C413.296 614.056 410.795 614.952 408.341 615.918C405.887 616.861 403.433 617.803 400.908 618.793C380.899 626.193 359.097 631.92 336.281 635.125C330.57 635.761 324.766 636.398 318.985 637.057C312.921 637.34 306.834 637.623 300.699 637.929C299.944 637.953 299.118 638 298.434 638L296.404 637.953L292.322 637.859C289.609 637.812 286.896 637.741 284.158 637.67L279.227 637.576L274.791 637.246C271.842 637.034 268.869 636.798 265.872 636.562C242.112 634.371 218.351 628.998 195.7 621.126C173.001 613.302 151.506 602.461 131.969 589.688C122.129 583.396 112.974 576.302 104.173 569.138C95.5375 561.691 87.2555 554.149 79.7522 546.09C64.6512 530.135 51.8861 513.12 41.5986 496.034C31.2402 478.971 23.383 461.838 17.5077 445.624C11.6797 429.363 7.88086 414.045 5.33256 400.4C4.74268 397.006 4.17639 393.683 3.6337 390.502C3.23258 387.273 2.85505 384.186 2.50112 381.216C2.31236 379.732 2.1236 378.27 1.95844 376.856C1.84045 375.419 1.76967 374.005 1.65169 372.662C1.46293 369.928 1.27417 367.312 1.0854 364.837C0.66069 354.939 0.542709 347.162 0.802259 341.907C0.967428 336.628 1.06181 333.8 1.06181 333.8Z"/></g><path fill="#105C7F" d="M347.78 546.096C360.356 546.096 370.832 541.854 379.209 533.37C387.632 524.886 391.856 511.5 391.856 493.212C392.611 476.244 392.988 463.942 392.988 456.26C392.988 446.149 393.649 440.682 394.97 439.857C396.339 438.985 411.346 438.537 439.99 438.537C448.603 438.537 455.563 434.366 460.849 426C466.181 417.587 468.871 406.958 468.871 394.138C468.871 374.907 462.311 362.464 449.24 356.808C444.332 354.805 438.409 353.791 431.496 353.791H427.06C409.246 353.791 399.501 352.943 397.802 351.246C396.787 350.492 396.292 349.149 396.292 347.193C396.292 338.591 397 333.854 398.463 332.958C399.973 332.086 401.813 331.638 404.031 331.638C419.368 331.638 433.1 331.261 445.181 330.507C454.549 329.824 463.208 326.996 471.136 322.023C483.217 314.175 489.257 301.237 489.257 283.185C489.257 273.075 487.393 264.944 483.689 258.77C479.961 252.619 475.43 248.071 470.098 245.101C464.813 242.155 459.574 240.671 454.431 240.671L411.11 241.048C390.157 241.307 366.585 241.425 340.418 241.425C330.791 241.425 322.887 244.441 316.728 250.474C310.546 256.508 306.842 263.955 305.591 272.816C305.332 274.583 305.025 276.021 304.648 277.152C304.27 278.236 304.081 279.98 304.081 282.431V290.255C303.326 307.483 302.949 330.649 302.949 359.73C302.76 364.962 302.666 370.524 302.666 376.415H301.91C301.91 432.363 301.769 466.134 301.533 477.753C301.533 492.034 301.651 499.788 301.91 501.037C301.91 516.567 305.898 527.973 313.897 535.256C321.943 542.467 333.245 546.096 347.78 546.096Z"/><path fill="#EC96A7" d="M305.007 426.165C318.527 426.165 329.664 421.805 338.418 413.061C347.219 404.342 351.961 392.087 352.669 376.297L353.047 316.72L352.669 262.423C352.669 244.205 353.047 232.493 353.802 227.261C354.038 224.056 355.029 221.935 356.728 220.851C358.474 219.72 359.866 219.154 360.881 219.154C367.983 219.154 375.793 218.777 384.287 218.023C392.829 217.269 400.332 215.195 406.75 211.801C421.52 203.128 428.929 187.951 428.929 166.27C428.929 153.709 425.579 144.164 418.925 137.613C412.318 131.085 404.909 126.725 396.745 124.51C388.629 122.318 382.069 121.21 377.114 121.21H248.284C235.259 121.21 222.659 123.921 210.531 129.317C192.268 137.424 183.161 151.47 183.161 171.455C183.161 182.083 186.629 191.345 193.542 199.264C200.456 207.135 207.511 212.414 214.684 215.1C218.318 216.562 222.376 217.598 226.859 218.211C231.319 218.848 238.232 219.154 247.623 219.154C250.077 219.154 252.578 219.531 255.173 220.285C257.745 221.039 259.161 222.901 259.421 225.847C261.167 259.359 262.063 305.291 262.063 363.665V379.974C262.063 380.233 262.535 382.778 263.479 387.609C264.47 392.393 266.452 397.743 269.425 403.635C272.374 409.55 276.692 414.805 282.355 419.377C288.018 423.902 295.569 426.165 305.007 426.165Z"/></svg>