<svg xmlns="http://www.w3.org/2000/svg" width="921" height="921" fill="none" viewBox="0 0 921 921"><g opacity=".9"><mask id="mask0_595_2486" style="mask-type:luminance" width="273" height="280" x="0" y="142" maskUnits="userSpaceOnUse"><path fill="#fff" d="M0 142.443H272.005V421.139H0V142.443Z"/></mask><g mask="url(#mask0_595_2486)"><path fill="#EDFAFF" d="M49.4586 414.369L1.63525 150.915L267.898 243.654L49.4586 414.369L1.63525 150.915L267.898 243.654L49.4586 414.369Z"/></g><mask id="mask1_595_2486" style="mask-type:luminance" width="863" height="448" x="58" y="0" maskUnits="userSpaceOnUse"><path fill="#fff" d="M58.0352 0H921V447.266H58.0352V0Z"/></mask><g mask="url(#mask1_595_2486)"><path fill="#EDFAFF" d="M919.074 439.101C919.074 439.101 918.711 435.053 918.057 427.432C917.584 419.846 916.094 408.755 913.841 394.841C913.151 391.371 912.424 387.696 911.661 383.886C911.297 381.981 910.898 380.008 910.534 378.001C910.026 376.027 909.517 373.986 909.008 371.911C907.954 367.761 906.9 363.508 905.774 359.051C904.393 354.663 903.048 350.104 901.595 345.409C895.562 326.732 887.458 306.047 876.302 284.649C865.109 263.284 850.937 241.171 833.457 219.738C815.941 198.339 795.155 177.586 771.534 158.807C759.796 149.35 747.077 140.674 734.031 132.305C720.731 124.242 707.103 116.452 692.713 109.784C664.113 96.2097 633.588 85.5613 602.262 78.9613C570.974 72.3274 539.176 68.9934 507.96 69.5377C504.072 69.6738 500.147 69.7758 496.295 69.9119L490.481 70.082L490.117 70.116C492.407 70.082 490.553 70.116 490.953 70.116L490.154 70.1841L488.591 70.3202L485.43 70.5583C481.25 70.9325 477.071 71.2727 472.892 71.6129L466.642 72.1232L463.517 72.3614C462.535 72.4975 461.7 72.6676 460.791 72.8037C453.705 73.8923 446.618 74.981 439.605 76.0356C432.373 77.6005 425.178 79.0974 418.055 80.6283C389.674 87.4324 363.4 96.9922 339.743 108.117C336.835 109.546 333.892 110.975 331.021 112.369C328.15 113.798 325.207 115.091 322.518 116.724C317.03 119.786 311.652 122.848 306.31 125.841C301.15 129.005 296.207 132.373 291.265 135.503C286.287 138.497 281.744 142.001 277.274 145.335C274.985 147.002 272.768 148.635 270.588 150.234C269.461 151.051 268.371 151.833 267.317 152.65L264.228 155.235C260.158 158.603 256.197 161.937 252.345 165.169C248.384 168.333 245.041 171.939 241.552 175.103C239.808 176.736 238.1 178.335 236.428 179.9C234.72 181.465 233.085 183.064 231.631 184.731C219.276 197.522 209.391 209.328 201.833 219.33C198.126 224.433 194.855 228.957 191.948 232.87C189.368 236.952 187.151 240.422 185.371 243.246C181.773 248.893 179.883 251.853 179.883 251.853L178.393 254.132C161.204 281.145 123.92 289.888 95.2475 273.66C66.5026 257.432 57.2359 222.357 74.4974 195.345C75.5876 193.644 76.8231 191.909 78.095 190.31C78.095 190.31 81.0385 186.602 86.6349 179.662C89.4694 176.226 92.849 171.973 96.9554 167.04C101.316 162.277 106.295 156.8 111.891 150.71C123.302 138.701 137.874 124.753 155.717 110.056C157.861 108.151 160.187 106.314 162.585 104.545C164.984 102.742 167.382 100.905 169.853 99.0674C174.796 95.4612 179.665 91.4468 185.116 87.8747C190.531 84.2685 196.091 80.5603 201.76 76.8181C203.141 75.8655 204.558 74.9469 206.012 73.9944C207.502 73.1098 208.992 72.2253 210.518 71.3408C213.534 69.6057 216.587 67.8027 219.639 66.0336C225.817 62.4615 232.031 58.7192 238.754 55.5213C245.404 52.1873 252.091 48.6832 259.032 45.4513C266.118 42.3894 273.241 39.2936 280.545 36.1637C284.143 34.5307 287.922 33.2379 291.774 31.8431C295.553 30.4823 299.333 29.0874 303.185 27.7266C334.037 17.0102 367.615 8.74324 402.756 4.15049C411.587 3.23194 420.454 2.27937 429.357 1.36082C438.733 0.952571 448.108 0.510306 457.557 0.102061C458.72 0.068043 459.955 0 461.045 0L464.171 0.0680408L470.421 0.170094C474.637 0.272157 478.852 0.340202 483.031 0.442257L490.553 0.612367L497.458 1.08865C502.001 1.39484 506.579 1.73504 511.158 2.04122C547.789 5.23915 584.383 12.9618 619.27 24.3246C654.265 35.6194 687.298 51.2687 717.387 69.7078C732.541 78.7912 746.677 89.0314 760.232 99.3736C773.496 110.124 786.288 121.011 797.844 132.68C821.138 155.711 840.725 180.24 856.642 204.905C872.523 229.57 884.66 254.268 893.673 277.674C902.685 301.149 908.536 323.262 912.46 342.96C913.369 347.859 914.241 352.655 915.077 357.248C915.658 361.909 916.24 366.4 916.821 370.652C917.112 372.796 917.366 374.905 917.657 376.98C917.802 379.021 917.984 381.062 918.129 383.036C918.42 386.948 918.711 390.724 919.002 394.296C919.619 408.619 919.801 419.812 919.401 427.398C919.183 435.019 919.074 439.101 919.074 439.101Z"/></g><mask id="mask2_595_2486" style="mask-type:luminance" width="277" height="280" x="644" y="499" maskUnits="userSpaceOnUse"><path fill="#fff" d="M644.126 499.521H921V778.217H644.126V499.521Z"/></mask><g mask="url(#mask2_595_2486)"><path fill="#EDFAFF" d="M871.215 506.632L919.074 770.052L652.739 677.312L871.215 506.632L919.074 770.052L652.739 677.312L871.215 506.632Z"/></g><mask id="mask3_595_2486" style="mask-type:luminance" width="859" height="448" x="0" y="473" maskUnits="userSpaceOnUse"><path fill="#fff" d="M0 473.394H858.095V921H0V473.394Z"/></mask><g mask="url(#mask3_595_2486)"><path fill="#EDFAFF" d="M1.63541 481.865C1.63541 481.865 1.96247 485.913 2.61659 493.534C3.08901 501.12 4.57895 512.245 6.86837 526.125C7.52248 529.629 8.24929 533.27 9.01243 537.114C9.37582 539.053 9.73922 540.958 10.139 542.965C10.6477 544.973 11.1565 546.98 11.6652 549.055C12.6828 553.171 13.773 557.492 14.8995 561.915C16.2441 566.337 17.625 570.896 19.0786 575.591C25.111 594.268 33.2148 614.919 44.3712 636.317C55.5276 657.682 69.7365 679.795 87.216 701.228C104.732 722.661 125.518 743.38 149.139 762.159C160.877 771.616 173.596 780.292 186.642 788.695C199.943 796.724 213.57 804.548 227.961 811.182C256.56 824.79 287.049 835.405 318.374 842.005C349.663 848.673 381.497 852.007 412.713 851.428C416.601 851.292 420.453 851.156 424.342 851.054L430.12 850.85H430.52C428.266 850.884 430.12 850.85 429.684 850.85L432.082 850.646L435.207 850.374L447.781 849.353L454.031 848.843L457.12 848.571C458.138 848.503 458.974 848.298 459.846 848.162C466.969 847.074 474.018 846.019 481.032 844.93C488.3 843.4 495.459 841.869 502.618 840.338C530.963 833.534 557.273 824.008 580.931 812.849C583.838 811.42 586.745 809.991 589.652 808.597C592.523 807.236 595.467 805.909 598.156 804.276C603.643 801.18 609.021 798.118 614.363 795.125C619.56 791.961 624.466 788.627 629.408 785.497C634.387 782.469 638.929 778.965 643.399 775.631C645.652 773.964 647.869 772.331 650.086 770.732C651.212 769.915 652.266 769.133 653.356 768.351L656.445 765.765C660.515 762.363 664.476 759.029 668.365 755.797C672.253 752.599 675.633 749.061 679.121 745.863C680.866 744.23 682.573 742.631 684.245 741.032C685.953 739.501 687.552 737.902 689.042 736.235C701.398 723.444 711.282 711.673 718.841 701.637C722.511 696.533 725.854 692.043 728.689 688.096C731.305 684.014 733.486 680.51 735.303 677.72C738.864 672.107 740.79 669.113 740.79 669.113L742.244 666.834C759.505 639.821 796.754 631.112 825.426 647.306C854.134 663.534 863.437 698.575 846.212 725.621C845.049 727.356 843.814 729.091 842.578 730.69C842.578 730.69 839.562 734.364 834.002 741.304C831.204 744.74 827.861 749.027 823.682 753.926C819.357 758.689 814.342 764.166 808.746 770.256C797.371 782.299 782.799 796.213 764.956 810.91C762.812 812.849 760.486 814.652 758.052 816.421C755.689 818.224 753.255 820.062 750.82 821.899C745.841 825.539 741.008 829.519 735.557 833.091C730.179 836.697 724.619 840.406 718.913 844.182C717.496 845.135 716.079 846.053 714.662 846.972C713.172 847.856 711.682 848.741 710.156 849.625C707.176 851.36 704.087 853.163 701.034 854.932C694.856 858.539 688.642 862.247 681.919 865.479C675.269 868.745 668.583 872.283 661.642 875.549C654.592 878.577 647.396 881.672 640.128 884.802C636.531 886.435 632.679 887.728 628.899 889.123C625.12 890.484 621.341 891.845 617.452 893.273C586.636 903.956 553.058 912.223 517.917 916.85C509.123 917.768 500.183 918.687 491.28 919.639C481.941 920.047 472.565 920.456 463.116 920.898C461.954 920.932 460.682 921 459.628 921L456.503 920.932L450.216 920.796C446.037 920.728 441.858 920.626 437.642 920.524L430.047 920.388L423.215 919.911C418.673 919.605 414.094 919.265 409.479 918.925C372.884 915.761 336.29 908.004 301.404 896.641C266.445 885.347 233.339 869.697 203.249 851.258C188.096 842.175 173.996 831.935 160.441 821.592C147.141 810.842 134.385 799.955 122.829 788.32C99.5716 765.289 79.9117 740.726 64.0675 716.061C48.1142 691.43 36.013 666.698 26.9644 643.292C17.9884 619.817 12.1377 597.704 8.21295 578.006C7.30445 573.107 6.43229 568.311 5.59647 563.718C4.97869 559.057 4.39725 554.6 3.85215 550.314C3.56143 548.171 3.27071 546.061 3.01634 544.02C2.83464 541.945 2.72562 539.904 2.54391 537.964C2.25319 534.018 1.96247 530.242 1.67175 526.67C1.01764 512.381 0.835933 501.154 1.23568 493.568C1.49006 485.947 1.63541 481.865 1.63541 481.865Z"/></g><path fill="#D5FAFF" d="M535.628 788.33C554.997 788.33 571.132 782.206 584.033 769.959C597.006 757.712 603.511 738.388 603.511 711.988C604.674 687.494 605.255 669.735 605.255 658.644C605.255 644.05 606.273 636.157 608.308 634.966C610.415 633.707 633.528 633.061 677.644 633.061C690.908 633.061 701.629 627.039 709.769 614.962C717.982 602.817 722.124 587.474 722.124 568.967C722.124 541.206 712.022 523.243 691.889 515.078C684.331 512.187 675.209 510.724 664.562 510.724H657.73C630.293 510.724 615.285 509.499 612.668 507.049C611.106 505.961 610.343 504.022 610.343 501.198C610.343 488.781 611.433 481.942 613.686 480.65C616.012 479.391 618.846 478.745 622.262 478.745C645.883 478.745 667.033 478.2 685.639 477.112C700.066 476.125 713.403 472.043 725.613 464.864C744.219 453.535 753.522 434.858 753.522 408.799C753.522 394.204 750.651 382.467 744.946 373.553C739.204 364.674 732.227 358.108 724.014 353.822C715.874 349.569 707.806 347.426 699.884 347.426L633.164 347.97C600.894 348.344 564.591 348.514 524.29 348.514C509.463 348.514 497.289 352.869 487.804 361.578C478.283 370.287 472.578 381.038 470.652 393.83C470.252 396.381 469.78 398.456 469.198 400.089C468.617 401.654 468.326 404.172 468.326 407.71V419.005C467.163 443.874 466.582 477.316 466.582 519.297C466.291 526.849 466.146 534.878 466.146 543.383H464.983C464.983 624.148 464.765 672.899 464.401 689.671C464.401 710.287 464.583 721.48 464.983 723.283C464.983 745.703 471.124 762.168 483.444 772.681C495.835 783.091 513.242 788.33 535.628 788.33Z"/><path fill="#EC96A7" d="M469.751 615.2C490.574 615.2 507.727 608.906 521.209 596.285C534.763 583.697 542.068 566.007 543.158 543.213L543.739 457.209L543.158 378.826C543.158 352.529 543.739 335.62 544.902 328.068C545.266 323.441 546.792 320.379 549.408 318.814C552.098 317.181 554.242 316.365 555.804 316.365C566.743 316.365 578.771 315.821 591.854 314.732C605.009 313.643 616.565 310.649 626.449 305.75C649.198 293.231 660.609 271.322 660.609 240.023C660.609 221.89 655.448 208.112 645.201 198.654C635.025 189.231 623.615 182.937 611.041 179.739C598.54 176.575 588.438 174.976 580.806 174.976H382.39C362.33 174.976 342.925 178.888 324.246 186.679C296.119 198.382 282.092 218.658 282.092 247.508C282.092 262.851 287.434 276.221 298.081 287.652C308.729 299.014 319.595 306.635 330.642 310.513C336.238 312.623 342.489 314.119 349.393 315.004C356.262 315.923 366.909 316.365 381.373 316.365C385.152 316.365 389.004 316.909 393.001 317.998C396.962 319.086 399.143 321.774 399.543 326.027C402.232 374.404 403.613 440.709 403.613 524.978V548.52C403.613 548.894 404.339 552.568 405.793 559.543C407.319 566.449 410.372 574.171 414.951 582.677C419.493 591.216 426.143 598.802 434.865 605.402C443.587 611.934 455.215 615.2 469.751 615.2Z"/></g></svg>